<?xml version="1.0" encoding="UTF-8"?><svg id="_レイヤー_1" xmlns="http://www.w3.org/2000/svg" width="380.34" height="258.87" xmlns:xlink="http://www.w3.org/1999/xlink" viewBox="0 0 380.34 258.87"><defs><style>.cls-1{fill:none;stroke:url(#gold);stroke-linecap:round;stroke-linejoin:round;stroke-width:4px;}.cls-2{fill:url(#gold-15);}.cls-3{fill:url(#gold-14);}.cls-4{fill:url(#gold-13);}.cls-5{fill:url(#gold-12);}.cls-6{fill:url(#gold-10);}.cls-7{fill:url(#gold-11);}.cls-8{fill:url(#gold-16);}.cls-9{fill:url(#gold-18);}.cls-10{fill:url(#gold-17);}.cls-11{fill:url(#gold-3);}.cls-12{fill:url(#gold-9);}.cls-13{fill:url(#gold-4);}.cls-14{fill:url(#gold-2);}.cls-15{fill:url(#gold-7);}.cls-16{fill:url(#gold-8);}.cls-17{fill:url(#gold-5);}.cls-18{fill:url(#gold-6);}</style><linearGradient id="gold" x1="80.38" y1="94.75" x2="302.07" y2="94.75" gradientUnits="userSpaceOnUse"><stop offset="0" stop-color="#ffb310"/><stop offset=".5" stop-color="#fff30d"/><stop offset="1" stop-color="#d99002"/></linearGradient><linearGradient id="gold-2" x1="179.86" y1="11.7" x2="185.92" y2="11.7" xlink:href="#gold"/><linearGradient id="gold-3" x1="195.38" y1="14.91" x2="200.61" y2="14.91" xlink:href="#gold"/><linearGradient id="gold-4" x1="211.49" y1="11.78" x2="217.37" y2="11.78" xlink:href="#gold"/><linearGradient id="gold-5" x1="0" y1="234.71" x2="380.34" y2="234.71" xlink:href="#gold"/><linearGradient id="gold-6" x1="0" y1="234.71" x2="380.34" y2="234.71" xlink:href="#gold"/><linearGradient id="gold-7" x1="0" y1="234.71" x2="380.34" y2="234.71" xlink:href="#gold"/><linearGradient id="gold-8" x1="0" y1="234.71" x2="380.34" y2="234.71" xlink:href="#gold"/><linearGradient id="gold-9" x1="0" y1="234.71" x2="380.34" y2="234.71" xlink:href="#gold"/><linearGradient id="gold-10" x1="0" y1="234.71" x2="380.34" y2="234.71" xlink:href="#gold"/><linearGradient id="gold-11" x1="0" y1="234.71" x2="380.34" y2="234.71" xlink:href="#gold"/><linearGradient id="gold-12" x1="0" y1="234.71" x2="380.34" y2="234.71" xlink:href="#gold"/><linearGradient id="gold-13" x1="0" y1="234.71" x2="380.34" y2="234.71" xlink:href="#gold"/><linearGradient id="gold-14" x1="0" y1="234.71" x2="380.34" y2="234.71" xlink:href="#gold"/><linearGradient id="gold-15" x1="0" y1="234.71" x2="380.34" y2="234.71" xlink:href="#gold"/><linearGradient id="gold-16" x1="0" y1="234.71" x2="380.34" y2="234.71" xlink:href="#gold"/><linearGradient id="gold-17" x1="0" y1="234.71" x2="380.34" y2="234.71" xlink:href="#gold"/><linearGradient id="gold-18" x1="0" y1="234.71" x2="380.34" y2="234.71" xlink:href="#gold"/></defs><g id="burger"><path class="cls-1" d="m104.59,61.75C95.93-11.58,242.31-12.13,282.31,31.52c57.99,66.11-132.08,33.25-163.85,40.3-.17.04-.35.06-.52.07-9.99.52-32.93,4.7-28.15,16.12.14.34.35.66.6.92,8.04,8.35,55.41,4.26,61.63,3.95,6.33-.32,25.78,8.66,30.21,6.76,4.43-1.9,8.72-8.66,14.1-3.59,5.11,4.81,8.22,8.76,11.78,5.89.37-.3.64-.69.85-1.11,6.22-12.6,30.12-18.78,43.45-18.09.18,0,.35.04.52.07,7.86,1.6,35.43-3.74,38.56,2.21,21.23,41.94-40.24,20.7-56.95,35.82-.15.14-.29.3-.41.47-3.53,4.63-19.33,10.19-28.11,10.04-.24,0-.47-.03-.7-.09-22.42-5.35-46.02-35.05-71.51-22.46-.31.15-.64.26-.98.31-8.65,1.42-8.47,7.46-14.99,4.67-6.51-2.79-6.64-9.53-11.11-8.31-.19.05-.37.13-.54.22-9.42,4.8-30.39,17.44-21.76,28.18.91,1.13,2.08,2.01,3.36,2.7,5.87,3.15,4.39,9.49,12.64,3.2,7.21-5.5,2.36-5.51,9.49-6.67,10.14-1.66,8.33,12.12,13.71,8.64,5.38-3.48,2.43-5.47,13.83-4.21,3.39.38,5.6.73,7.26,1.05,6.31,1.26,12.77,1.63,19.18,1.12,16.47-1.32,8.49,3.81,31.33,5.41.1,0-7.99-.63-7.89-.63,11.3-.27,26.33,4.96,29.49,0,2.67-4.19,13.47,7.91,16.85,2.85,6.35-9.53,4.73,3.63,18.69-10.15.2-.19.42-.36.65-.5,5.34-3.34,5.46-12.14,11.04-12.45,5.7-.32,4.68,4.92,9.18-3.8,1.77-3.42,5.7-3.48,7.91-3.17,1.76.25,10.19,1.8,14.87,3.53,3.08,1.14,4.79,4.51,3.74,7.62-2.93,8.75-22.92,15.57-28.27,17.24-.32.1-7.1,1.87-7.42,1.95-12.62,3.17-20.38,9.52-22.2,9.69l-.62.18c-23.41,7.53-29.7-6.51-42.78-2.94-.16.04-.33.11-.48.17-18.34,8.11-17.16-7.25-34.67-4.07-.55.1-1.07.34-1.5.68-20.25,16.05-17.1-4.74-38.73,1.86-.34.1-.65.27-.94.47-8.28,5.64-16.79-2.2-21.96-1.89-1.97.12-3.36,2.01-2.98,3.94,8.32,42.44,134.71,31.47,154.62,27.7,15.94-3.1,38.99-15.96,40.9-38.14"/><path class="cls-14" d="m184.42,13.92c-1.06,1.09-2.76,1.17-3.8.16-1.04-1-1.02-2.7.03-3.8,1.06-1.09,3.79-2.3,4.83-1.3,1.04,1,0,3.84-1.06,4.93Z"/><path class="cls-11" d="m200.61,15.67c0,1.52-1.17,2.76-2.62,2.76s-2.62-1.23-2.62-2.76,1.13-4.29,2.57-4.29,2.66,2.76,2.66,4.29Z"/><path class="cls-13" d="m212.67,13.89c.96,1.18,2.64,1.4,3.77.5,1.12-.91,1.26-2.6.3-3.79s-3.57-2.62-4.7-1.71-.33,3.82.63,5Z"/></g><g id="text"><path class="cls-17" d="m22.48,247.36v-.05c-1.21,2.74-3.96,5.04-9.76,5.04-3.37,0-6.52-1.35-8.32-3.51-3.87-4.59-4.41-11.33-4.41-15.96,0-6.88,3.87-16.55,13.18-16.55,6.21,0,10.43,4.54,10.88,10.07l.22,3.33c-3.1,1.21-5.49,1.12-8.27.99.27-1.98.36-3.19.31-3.78,0-.31-.04-.63-.04-.85,0-1.93-1.35-3.15-3.1-3.15-3.64,0-5.17,5.71-5.17,9.31,0,1.39,0,3.46.23,5.58.13,1.93.58,4.05,1.44,5.62.81,1.53,1.98,2.34,3.24,2.34,1.12,0,2.11-.41,2.65-.9.67-1.08.99-2.61.99-5.67l7.82.36-.09,1.62c-.36,2.61-.72,4.14-1.8,6.16Z"/><path class="cls-18" d="m51.53,252.67c-1.44.36-2.92.63-3.64.63-.76,0-2.16-.23-4-.63v-2.74l.09-9.26h-4.36c.04,2.97.18,6.34.23,9.04-2.16.45-3.28.63-4,.63-.63,0-2.11-.13-3.6-.32l-.27-9.35h-2.97v-6.39h2.92l-.31-18.39c2.16-.5,3.37-.63,4.09-.63.54,0,.99,0,3.55.5l.31,18.48h4.45c.05-7.06.18-14.84.23-21.81,1.93-.58,2.97-.76,3.69-.76s1.8.18,3.96.63l-.23,21.94c1.57,0,3.37-.04,4.27-.04v6.29l-4.32.09c0,3.91-.09,8.45-.09,12.1Z"/><path class="cls-15" d="m63.8,235.58c0-.36-.04-.81-.04-1.21-.13-2.43-1.03-13.13-1.3-16.01,2.7-.76,6.66-.67,8.09-.45.31,2.2.09,4.41.31,6.88.22,2.7.27,6.97.54,11.11.18,2.88.49,10.12.72,13.04l-7.82.18-.18-6.38c-.14-2.88-.18-5.22-.31-7.15Z"/><path class="cls-16" d="m98.02,252.4c-2.02-.18-3.33-.41-5.31-.45-1.62-.04-3.42-.22-4.99-.22-2.38-.09-4.23-.13-5.85-.45l-2.7-.5.27-3.1c.81-6.66,1.26-11.38,1.44-14.21l.72-15.6c1.84-.5,2.92-.63,3.6-.63.85,0,2.2.22,4.09.85l-.09,2.65-.58,13.04c-.13,2.61-.36,4.32-1.03,10.39,3.73.27,5.13.5,8.86.67l2.25.09c.18,1.35,0,5.26-.67,7.46Z"/><path class="cls-12" d="m126.8,242.96c.18.67.4,3.64.4,4.36,0,.58-.18,1.53-.63,3.1-1.98.04-5.8.13-7.82.22-2.7.13-5.58.22-8.27.22-1.93,0-3.6-.22-5.35-.22l.09-3.28c.31-5.76.4-9.98.4-12.95v-1.44c-.04-2.7.18-6.97.4-12.41l.13-3.42c1.89-.54,2.92-.72,3.6-.72.9,0,2.25.32,4.09.94l-.09,2.61-.4,13c-.04.9-.04,1.98-.04,3.33-.04,2.47,0,3.28-.18,7.2,0,0,8.09-.09,13.67-.54Z"/><path class="cls-6" d="m136.19,235.58c0-.36-.04-.81-.04-1.21-.13-2.43-1.03-13.13-1.3-16.01,2.7-.76,6.65-.67,8.09-.45.31,2.2.09,4.41.31,6.88.23,2.7.27,6.97.54,11.11.18,2.88.49,10.12.72,13.04l-7.83.18-.18-6.38c-.13-2.88-.18-5.22-.31-7.15Z"/><path class="cls-7" d="m161.64,240.84c.49,4.86,1.03,9.13,1.48,12.41-2.34.81-4.9,1.12-7.64.9l-.36-2.83.04.04c-.85-6.39-2.02-17.58-3.42-31.88l5.53-3.82c4,8.59,7.51,15.87,8.68,18.03-.04-2.11-.04-4.23-.04-6.34,0-3.78.09-8.68.23-12.46,1.71-.58,2.7-.76,3.46-.76.81,0,2.16.31,4.18.85-.09,3.6-.18,8.27-.18,11.78,0,8.95.27,17.58.94,26.31l-4.32,1.08c-2.43-3.64-5.35-8.05-8.59-13.31Z"/><path class="cls-5" d="m183.67,229.42l-3.42-3.33c1.26-.85,4.14-5.67,4.05-6.75v-.09c-1.89-.22-3.01-2.34-3.1-4.32-.18-2.2,1.35-4.14,4-4.36,2.74-.27,4.95,1.03,5.31,5.94.27,3.42-3.19,9.98-6.83,12.91Z"/><path class="cls-4" d="m229.94,246.96c-2.83,2.52-7.46,3.96-14.07,4.18-.22-3.1-.81-9.8-1.53-16.59,0-.09-.04-.22-.04-.36-.22-2.29-.63-6.66-3.1-13.58l4.9-2.16c1.93-.85,4-1.39,5.89-1.39,2.38,0,4.27.72,5.53,1.89,1.39,1.39,2.11,3.01,2.11,4.81,0,1.93-.67,3.96-2.11,6.16,1.62.58,3.1,1.53,4.14,2.7,1.66,1.84,2.56,3.91,2.56,6.12,0,3.01-1.44,5.71-4.27,8.23Zm-8.95-24.01c-.36-.04-1.75.18-2.56.58.41,1.57.81,4.05,1.53,7.37,1.21-.9,2.47-2.34,2.47-2.34.76-.94.9-2.25.72-3.42-.22-1.17-.99-1.98-2.16-2.2Zm3.15,12.91c-.27-.14-1.71-.14-2.83.31.18,1.8.58,5.22.94,7.46.36-.27,2.02-1.26,2.34-1.53.9-.94,1.39-2.11,1.39-3.42.04-1.26-.58-2.43-1.84-2.83Z"/><path class="cls-3" d="m258.58,244.26c-.5.81-1.53,1.84-3.28,2.92l.04-.04c-1.48.99-2.83,1.62-4.18,1.8l.09-.04c-1.71.36-3.51-.13-5.31-.99-2.11-1.08-3.46-2.34-4.14-3.78v.04c-.72-1.53-1.12-10.07-1.57-17.4l-.32-5.49c2.52-.58,5.13-.81,8.05-.49l.27,2.83c.18.76.09,3.91.13,6.29.04,2.43.09,5.35.13,6.16.18,3.24.31,5.22.45,5.58.13.18.36.45.49.54.45.18.76.31.81.31.09,0,.63-.22,1.26-.54.23-.13.45-.22.54-.41v.05c.76-1.21,1.08-2.47,1.08-3.78,0-.85-.18-5.22-.27-9.4-.09-2.07-.13-4.54-.18-5.94l-.05-2.74c2.11-.5,3.33-.67,4.05-.67.54,0,1.03,0,3.6.54l.04,2.7c.14,4.18.18,13.58.18,14.84,0,2.52-.67,4.9-1.93,7.1Z"/><path class="cls-2" d="m278.9,252.62c-2.29-2.74-4.27-7.73-4.86-9.94-.72,3.6-1.21,7.96-1.3,9.76l-7.15-1.75c.54-2.56,2.2-10.25,3.91-20.19.22-1.53,1.21-6.12,1.48-7.96l-3.42.81c-.04-.76-.04-1.57-.04-2.38,0-2.43.13-4.63.13-4.63,2.7-.58,3.55-.58,4.45-.63l.36-2.56,7.73-.36-.72,2.7c5.89.5,9.13,4.14,9.13,8.99,0,3.78-1.71,7.19-4.27,9.62v-.04c-1.53,1.48-3.33,2.47-5.62,2.97,1.12,3.15,2.61,6.29,4.45,8.81,2.16,2.92,4.9,5.04,8.05,6.88l-3.64,6.16c-2.79-1.04-5.85-2.79-8.68-6.25Zm1.98-28.01c0-1.75-.99-2.65-2.52-2.74h-.09c-.54,3.1-1.3,7.01-1.66,8.72v.09c.67-.31,1.57-.76,2.29-1.44v.04c.81-.85,1.98-2.11,1.98-4.68Z"/><path class="cls-8" d="m317.17,245.29c0,1.75.09,4,.13,5.35-1.39.85-2.61,1.48-3.82,1.98-1.44.54-2.97.76-4.54.76-4.45,0-8.23-1.98-11.2-6.07-1.35-1.89-2.56-5.67-2.56-8.95,0-5.08.04-8.59,2.29-13.58,2.7-5.62,8.09-9.17,11.96-9.17,5.17,0,9.13,2.38,9.67,6.97l.22,3.06c-2.79.76-5.67,2.07-8.45,1.66.36-1.66.36-2.74-.09-4.18-.13-.36-.76-.54-1.39-.54-1.17,0-3.78,1.35-5.08,5.17-1.26,3.6-1.44,6.43-1.44,9.8.13,5.26,3.69,8.77,6.66,8.59h.09v-.9c0-2.29,0-3.24.13-7.42-.13,0-.13.04-.36.04l-3.78.31.09-6.7c5.4-.72,7.69-.18,15.11-1.21.22,2.56.36,3.78.31,4.5v2.52h-3.82c-.09,3.1-.13,5.76-.13,8Z"/><path class="cls-10" d="m330.65,250.69l-.31-14.12c-.94.04-2.74.36-2.74.36l-.04-6.52c.45,0,2.25-.27,2.65-.31-.04-4-.18-8.9-.22-12.55.85.05,4.18-.09,5.08-.09.76,0,6.39-.31,12.86-.72.67,1.75.54,2.79.54,3.51,0,.54,0,.94-.36,2.88-3.64.32-4.18.32-4.63.36-1.98.13-2.43.22-5.71.36,0,1.8,0,3.64.04,5.4,2.65-.36,7.02-.9,9.4-1.39.45,1.57.76,4.05.45,6.39-5.94,1.08-6.61,1.26-9.71,1.62l.14,5.04c2.79-.76,6.66-1.62,10.39-2.2.58,2.11.54,5.35.41,6.75-3.73.76-12.73,2.83-18.21,5.26Z"/><path class="cls-9" d="m368.02,252.62c-2.29-2.74-4.27-7.73-4.86-9.94-.72,3.6-1.21,7.96-1.3,9.76l-7.15-1.75c.54-2.56,2.2-10.25,3.91-20.19.22-1.53,1.21-6.12,1.48-7.96l-3.42.81c-.04-.76-.04-1.57-.04-2.38,0-2.43.13-4.63.13-4.63,2.7-.58,3.55-.58,4.45-.63l.36-2.56,7.73-.36-.72,2.7c5.89.5,9.13,4.14,9.13,8.99,0,3.78-1.71,7.19-4.27,9.62v-.04c-1.53,1.48-3.33,2.47-5.62,2.97,1.12,3.15,2.61,6.29,4.45,8.81,2.16,2.92,4.9,5.04,8.05,6.88l-3.64,6.16c-2.79-1.04-5.85-2.79-8.68-6.25Zm1.98-28.01c0-1.75-.99-2.65-2.52-2.74h-.09c-.54,3.1-1.3,7.01-1.66,8.72v.09c.67-.31,1.57-.76,2.29-1.44v.04c.81-.85,1.98-2.11,1.98-4.68Z"/></g></svg>